# xmcd
#
# Track frame offsets: 
#        150
#        15638
#        32433
#        49313
#        69250
#        81733
#        98995
#        117179
#        130809
#        148313
#        166030
#        184442
#        199681
#        221701
#        242746
#        261042
#        276088
#        293606
#        312353
#        327093
#
# Disc length: 4502 seconds
#
# Revision: 0
# Processed by: cddbd v1.5.2PL0 Copyright (c) Steve Scherf et al.
# Submitted via: ExactAudioCopy v1.0b1
#
DISCID=2b119414
DTITLE=Various Artist - Italy In Love [CD3) - Ti Amo
DYEAR=2009
DGENRE=Easy Listening
TTITLE0=Enzo Belmonte - Ti Amo
TTITLE1=Meccano - Baci Da Roma
TTITLE2=Joe Chiarello - Come Nasce Un Nuovo Amore
TTITLE3=Juli and Julie - Rondine
TTITLE4=Paolo Mengoli - Il Mondo
TTITLE5=Nino Reitano - Italia
TTITLE6=Nino D'Angelo - Batticuore
TTITLE7=Nuovi Angeli - Donna Felicita
TTITLE8=Dario Sebastiani - O Sole Mio
TTITLE9=Elite - Senza Tregua
TTITLE10=Cavaliere - Ragazzi Che
TTITLE11=Riccardo Fogli - Voglio Sognare
TTITLE12=Andrea Mingardi - Saludos Amigos
TTITLE13=I Santo California - Un Angelo
TTITLE14=Gepy and Gepy - Teneramente
TTITLE15=Flavia Fortunato - Verso Il 2000
TTITLE16=Angelo Fabiani - Viva L'Allegria
TTITLE17=Paola Palma - Una Storia Importante
TTITLE18=Angelo Branduardo and Edoardo De Angelis - Novalis
TTITLE19=Corvi - Raggazzo Di Strada
EXTD=
EXTT0=
EXTT1=
EXTT2=
EXTT3=
EXTT4=
EXTT5=
EXTT6=
EXTT7=
EXTT8=
EXTT9=
EXTT10=
EXTT11=
EXTT12=
EXTT13=
EXTT14=
EXTT15=
EXTT16=
EXTT17=
EXTT18=
EXTT19=
PLAYORDER=
